<?xml version="1.0" encoding="UTF-8"?>
<svg version="1.2" viewBox="0 0 9060 3020" xmlns="http://www.w3.org/2000/svg">
    <title>Environmental Accounting Platform_Logo-ai</title>
    <style>.s0 { fill: #ffffff }</style>
    <g id="&lt;Group&gt;">
        <path id="&lt;Path&gt;" class="s0" d="m3098.4 1017.8 514.2 1028.2h342.7l-685.5-1371z" />
        <path id="&lt;Path&gt;" class="s0" d="m3184.1 1531.9h-342.7l-257.1 514.1h342.8z" />
        <path id="&lt;Path&gt;" class="s0" d="m2147.1 675h285.7v1371h-285.7z" />
        <path id="a" class="s0" d="m624.6 2046h342.7l514.2-1028.2-171.4-342.8z" />
        <path class="s0" d="m1395.8 1531.9h342.7l257.1 514.1h-342.8z" />
    </g>
    <g id="&lt;Group&gt;">
        <g id="&lt;Group&gt;">
            <path id="&lt;Compound Path&gt;" class="s0"
                d="m3906.3 2217.8h1l57.9 120.9h-26.7l-9.5-21h-44.5l-9.3 21h-26.6zm15 82.1c-5.4-12.5-10.7-25-14.3-35.4-3.5 8.2-9.8 24.1-14.8 35.4zm-113.4-80.3h25.4v119.1h-25.4zm-88.8 119.1v-119.1h25.4v97.8h45.9v21.3zm-74.3-120.9h0.9l57.9 120.9h-26.6l-9.6-21h-44.5l-9.3 21h-26.6zm15 82.1c-5.4-12.5-10.7-25-14.4-35.4-3.4 8.2-9.7 24.1-14.7 35.4zm-132.2-80.3c27.6 0 46 13.8 46 39.2 0 17.4-9.8 28.8-22.7 33.9l25 46h-27l-21-41.7h-17.2v41.7h-25v-119.1zm-16.8 21.4v35.5h18.2c11.2 0 19-5.6 19-17.7 0-11.9-8.1-17.8-19.7-17.8zm-75.2 0v97.7h-25.4v-97.7h-33.3v-21.4h92.2v21.4zm-147.4 93.2v-24.4c8.3 4.3 19.2 7.9 30 8.6 3.8 0.2 7.4 0 10.6-0.7 9.1-1.3 14.4-4.8 14.4-10.5 0-8-7.2-12.1-23.5-18.1-20.9-7.6-33.1-16.4-33.1-37.1 0-21.1 17.5-34.7 43.2-34.7 11.9 0 23.6 2.7 31 6v23.5c-6.9-4.2-18.1-7.3-29-7.3-12.3 0-20.2 4.8-20.2 12.4 0 6.9 6.4 11.7 22.6 17.9 20.9 8 33.8 16.8 33.8 36.8 0 21.6-16.2 34.4-44.4 34.4-13.5 0-26.8-2.9-35.4-6.8zm-23.4-38.8c0 27.8-18.3 45.6-49.8 45.6-31.2 0-49.7-17.8-49.7-45.6v-75.8h25.4v73.3c0 15.6 8.8 24.8 24.3 24.8 15.8 0 24.4-9.2 24.4-24.8v-73.3h25.4zm-166.9-77.6h0.9l58 121h-26.7l-9.6-21h-44.5l-9.2 21h-26.7zm15.1 82c-5.5-12.4-10.8-25-14.4-35.4-3.5 8.3-9.8 24.2-14.8 35.4zm-128.2 40.7-65.3-62.7-7.8-6.8v67.7h-24.9v-120.9h0.9l65.2 62.6 7.6 6.8v-67.6h25.1v120.9zm-182.7 0.5c-34.5 0-62.3-27.6-62.3-61.9 0-34.2 27.8-61.8 62.3-61.8s62.4 27.6 62.4 61.8c0 34.3-27.9 61.9-62.4 61.9zm36.8-61.9c0-21.3-16.4-38.5-36.8-38.5-20.3 0-36.7 17.2-36.7 38.5s16.4 38.6 36.7 38.6c20.4 0 36.8-17.3 36.8-38.6zm-146.3-59.5h25.4v119.1h-25.4zm-50.3 21.3v97.8h-25.5v-97.8h-33.2v-21.3h92.1v21.3zm-111.8-23.2h1l57.9 121h-26.7l-9.5-21h-44.6l-9.2 21h-26.6zm15 82c-5.4-12.4-10.7-25-14.4-35.4-3.4 8.3-9.7 24.2-14.7 35.4zm-119.8 40.7h-1l-58.7-120.9h27.8l15.5 34.4c6.1 13.7 11.6 25.5 15.7 37 3.5-8.4 10.8-25.3 16-37l15.6-34.4h27.6zm-123.7 0.5c-34.5 0-62.4-27.7-62.4-61.9s27.9-61.8 62.4-61.8 62.3 27.6 62.3 61.8-27.8 61.9-62.3 61.9zm36.7-61.9c0-21.3-16.4-38.6-36.7-38.6s-36.7 17.3-36.7 38.6 16.4 38.6 36.7 38.6 36.7-17.3 36.7-38.6zm-122 61.4-65.3-62.7-7.8-6.8v67.7h-24.9v-121h0.9l65.2 62.7 7.6 6.8v-67.6h25.1v120.9zm-128.1 0-65.4-62.7-7.7-6.8v67.7h-25v-121h1l65.2 62.7 7.6 6.8v-67.6h25.1v120.9zm-152.5-120.9h25.4v119.1h-25.4zm-129.8 119v-119h25.5v97.7h45.8v21.3zm-74.3-120.9h1l57.9 120.9h-26.7l-9.6-21h-44.4l-9.3 21h-26.6zm15 82.1c-5.4-12.4-10.7-25-14.4-35.4-3.5 8.3-9.7 24.1-14.7 35.4zm-132.2-80.2c27.6 0 46 13.7 46 39.2 0 17.3-9.8 28.7-22.7 33.9l25 46h-27l-21-41.7h-17.2v41.7h-25v-119.1zm-16.9 21.3v35.6h18.2c11.3 0 19.1-5.6 19.1-17.7 0-11.9-8.1-17.9-19.7-17.9zm-53 54.4c0 27.8-18.4 45.7-49.8 45.7-31.3 0-49.8-17.9-49.8-45.7v-75.7h25.5v73.3c0 15.5 8.7 24.8 24.3 24.8 15.7 0 24.3-9.3 24.3-24.8v-73.3h25.5zm-148.9-54.5v97.8h-25.5v-97.8h-33.2v-21.3h92.1v21.3zm-126.2 97.8v-119.1h25.5v97.8h45.8v21.3zm-28.1-43.3c0 27.8-18.3 45.6-49.8 45.6-31.3 0-49.8-17.8-49.8-45.6v-75.8h25.5v73.3c0 15.6 8.8 24.8 24.3 24.8 15.7 0 24.3-9.2 24.3-24.8v-73.3h25.5zm-120.8-46.5c-7.1-3.6-18.3-8.3-32.9-8.3-24.2 0-39.4 17.4-39.4 38.6 0 21.3 15.1 38.5 38.6 38.5 15.4 0 27.1-4.4 34.6-8.2v23.6c-6.2 3.3-19.8 8-36.4 8-36 0-62.2-27-62.2-61.9 0-34.7 26.2-61.9 63-61.9 16.7 0 28.6 5 34.7 8.3zm-145.4-29.3h25.5v119.1h-25.5zm-69.8 0c27.6 0 46 13.7 46 39.2 0 17.4-9.8 28.8-22.7 33.9l25 46h-27l-21-41.7h-17.2v41.7h-25v-119.1zm-16.8 21.3v35.6h18.2c11.2 0 19-5.6 19-17.7 0-11.9-8.1-17.9-19.7-17.9zm-90.9 100.1c-37.7 0-64-26.9-64-61.9 0-34.7 26.6-61.8 63.5-61.8 17.7 0 30.6 5 37.4 8.1v23.5c-7.8-3.7-19.7-8.3-35.7-8.3-24.7 0-39.6 17.4-39.6 38.5 0 21.6 14.9 38.8 38.4 38.8 5.8 0 12.1-1 16.2-2.4v-31.7h24.3v48.1c-10.6 5.5-25.9 9.1-40.5 9.1zm-125.2-123.2h1l57.8 120.9h-26.6l-9.6-21h-44.5l-9.2 21h-26.7zm15.1 82.1c-5.5-12.5-10.7-25-14.4-35.4-3.5 8.2-9.7 24.1-14.7 35.4z"
                fill-rule="evenodd" />
        </g>
    </g>
    <g id="b">
        <path class="s0" d="m4282 675h9v1377h-9z" />
    </g>
    <path id="&lt;Compound Path&gt;" class="s0"
        d="m6716.3 1885.7-17-14.7v180.4h-65.4v-325.6h1.3l152.8 154.1 152.8-154.1h1.3v325.6h-65.4v-180.4l-17 14.7c-23.6 25.8-47.7 51.6-71.7 77-24.1-25.4-47.7-51.2-71.7-77zm-263.2-155c74.4 0 123.8 36.9 123.8 105.5 0 46.8-26.2 77.5-61 91.4l67.3 123.8h-72.6l-56.6-112.3h-46.4v112.3h-67.2v-320.7zm-45.5 57.4v95.8h49.1c30.3 0 51.2-15.1 51.2-47.7 0-32.1-21.8-48.1-53-48.1zm-288.5 269.5c-92.9 0-167.9-74.4-167.9-166.6 0-92.1 75-166.6 167.9-166.6s167.9 74.5 167.9 166.6c0 92.2-75 166.6-167.9 166.6zm98.9-166.6c0-57.4-44.2-103.8-98.9-103.8s-98.9 46.4-98.9 103.8c0 57.5 44.2 103.9 98.9 103.9s98.9-46.4 98.9-103.9zm-415.7-102.9v76.7h106.9v56.5h-106.9v130.1h-68.5v-320.7h195.5v57.4zm-197 0v263.3h-68.5v-263.3h-89.6v-57.4h248.1v57.4zm-292.7-62.3h2.6l155.9 325.6h-71.7l-25.8-56.6h-119.8l-25 56.6h-71.7zm40.6 221c-14.7-33.5-29-67.3-38.8-95.4-9.3 22.3-26.3 65.1-39.6 95.4zm-409 104.6v-320.7h68.6v263.3h123.4v57.4zm-202-109.6v109.6h-68.5v-320.7h104.2c73.9 0 123.3 36.5 123.3 105.5 0 69.1-49.4 105.6-123.3 105.6zm0-153.7v95.8h39.2c29.9 0 50.4-15.6 50.4-47.7s-21.4-48.1-52.2-48.1z"
        fill-rule="evenodd" />
    <path id="&lt;Compound Path&gt;" class="s0"
        d="m7484.4 1532.9c-101.6 0-172.4-72.5-172.4-166.6 0-93.6 71.7-166.6 171.1-166.6 47.6 0 82.3 13.4 100.6 21.8v63.3c-20.9-9.8-53-22.3-96.2-22.3-66.4 0-106.5 46.8-106.5 103.8 0 58 40.1 104.3 103.4 104.3 15.6 0 32.5-2.7 43.7-6.3v-85.5h65.4v129.6c-28.5 14.7-69.9 24.5-109.1 24.5zm-227.6-1.3-176-168.8-20.9-18.3v182.2h-67.2v-325.6h2.7l175.5 168.8 20.5 18.2v-182.2h67.7v325.7zm-404.1-325.7h68.6v320.8h-68.6zm-128.5 57.4v263.3h-68.5v-263.3h-89.5v-57.4h248.1v57.4zm-198.8 268.2-175.9-168.8-21-18.3v182.2h-67.2v-325.6h2.7l175.5 168.8 20.5 18.3v-182.2h67.7v325.6zm-333.2-121.5c0 74.8-49.4 122.8-134 122.8-84.3 0-134.1-48-134.1-122.8v-204.1h68.5v197.4c0 41.8 23.6 66.8 65.6 66.8 42.3 0 65.4-25 65.4-66.8v-197.4h68.6zm-485.4 122.9c-92.8 0-167.9-74.5-167.9-166.6 0-92.2 75.1-166.6 167.9-166.6 92.9 0 168 74.4 168 166.6 0 92.1-75.1 166.6-168 166.6zm99-166.6c0-57.5-44.2-103.9-98.9-103.9s-98.9 46.4-98.9 103.9c0 57.4 44.2 103.8 98.9 103.8s98.9-46.4 98.9-103.8zm-297.6-81.6c-19.2-9.8-49.4-22.3-88.6-22.3-65.1 0-106 46.8-106 103.9 0 57.4 40.5 103.8 103.7 103.8 41.5 0 73.1-12 93.2-22.3v63.7c-16.5 8.9-53.1 21.4-98.1 21.4-96.7 0-167.4-72.6-167.4-166.6 0-93.6 70.7-166.6 169.7-166.6 45 0 77 13.3 93.5 22.3zm-295.5 0c-19.1-9.8-49.4-22.3-88.6-22.3-65.1 0-106.1 46.8-106.1 103.8 0 57.5 40.6 103.9 103.8 103.9 41.5 0 73.1-12.1 93.1-22.3v63.7c-16.5 8.9-53 21.3-98 21.3-96.6 0-167.4-72.5-167.4-166.6 0-93.6 70.8-166.6 169.6-166.6 45.1 0 77.1 13.4 93.6 22.3zm-420.7-83.7h2.7l155.9 325.6h-71.7l-25.9-56.5h-119.8l-24.9 56.5h-71.7zm40.5 221c-14.7-33.4-29-67.3-38.8-95.3-9.3 22.3-26.2 65-39.6 95.3z"
        fill-rule="evenodd" />
    <path id="c" class="s0"
        d="m8255.2 1002v-320.8h68.6v263.4h123.4v57.4zm-193.5-325.6h2.6l156 325.6h-71.8l-25.8-56.6h-119.8l-25 56.6h-71.7zm40.6 220.9c-14.7-33.4-29-67.3-38.8-95.3-9.3 22.3-26.3 65-39.6 95.3zm-261.9-158.6v263.3h-68.5v-263.3h-89.5v-57.5h248.1v57.5zm-198.8 268.2-175.9-168.9-21-18.2v182.2h-67.2v-325.6h2.7l175.5 168.8 20.5 18.2v-182.2h67.7v325.7zm-530.6-4.9v-320.8h206.2v57.5h-137.6v73.1h116.7v55.2h-116.7v77.6h144.3v57.4zm-298.2-165.7-16.9-14.8v180.5h-65.4v-325.6h1.3l152.7 154 152.8-154h1.4v325.6h-65.4v-180.5l-17 14.8c-23.6 25.8-47.7 51.6-71.8 77-24-25.4-47.7-51.2-71.7-77zm-156.7 170.6-176-168.9-20.9-18.2v182.2h-67.3v-325.6h2.7l175.5 168.8 20.6 18.2v-182.2h67.6v325.7zm-485.5 1.3c-92.9 0-167.9-74.5-167.9-166.6s75-166.6 167.9-166.6 167.9 74.5 167.9 166.6-75 166.6-167.9 166.6zm99-166.6c0-57.4-44.3-103.9-99-103.9s-98.9 46.5-98.9 103.9 44.2 103.8 98.9 103.8 99-46.4 99-103.8zm-425.4-160.4c74.4 0 123.8 37 123.8 105.6 0 46.8-26.3 77.5-61 91.3l67.2 123.9h-72.5l-56.7-112.3h-46.3v112.3h-67.2v-320.8zm-45.5 57.5v95.8h49c30.3 0 51.3-15.1 51.3-47.7 0-32.1-21.9-48.1-53.1-48.1zm-207.1-57.5h68.5v320.8h-68.5zm-191 325.6h-2.7l-158.1-325.6h74.8l41.9 92.7c16.5 36.9 31.2 68.5 42.3 99.7 9.4-22.7 29-68.1 43.2-99.7l41.9-92.7h74.4zm-196.3 0-176-168.9-21-18.3v182.2h-67.1v-325.6h2.6l175.6 168.8 20.4 18.3v-182.2h67.7v325.7zm-530.6-5v-320.7h206.2v57.5h-137.7v73h116.8v55.3h-116.8v77.5h144.4v57.4z"
        fill-rule="evenodd" />
    <path class="s0"
        d="m3990.4 2299.9c-22 0-39.7-18.2-39.7-40.6s17.7-40.5 39.7-40.5c21.9 0 39.7 18.1 39.7 40.5s-17.8 40.6-39.7 40.6zm30.4-40.6c0-17.3-13.6-31.3-30.4-31.3s-30.4 14-30.4 31.3 13.6 31.3 30.4 31.3 30.4-14 30.4-31.3zm-36 21.5h-9.8v-43.2h15.8c9 0 15.6 5.9 15.6 14.3 0 5.6-3.1 9.8-8.2 11.8l8.8 17.1h-10.3l-7.3-15.7h-4.6zm0-34.4v10.9h4.6c4.5 0 6.9-1.6 6.9-5.4 0-3.9-2.4-5.5-6.9-5.5z"
        fill-rule="evenodd" />
</svg>